<?xml version="1.0" encoding="utf-8"?>
<!-- Generator: Adobe Illustrator 26.0.3, SVG Export Plug-In . SVG Version: 6.00 Build 0)  -->
<svg version="1.1" id="Layer_1" xmlns="http://www.w3.org/2000/svg" xmlns:xlink="http://www.w3.org/1999/xlink" x="0px" y="0px"
	 viewBox="0 0 496 88" style="enable-background:new 0 0 496 88;" xml:space="preserve">
<style type="text/css">
	.st0{fill:#1BAA55;}
	.st1{fill:#1CA55D;}
</style>
<g>
	<path d="M118.3,75.7c-3.5,0-6-1-7.6-3.1c-1.5-2.1-1.9-5.1-1.2-8.9c-5.5-0.8-9.4-3.2-11.7-7c-2.3-3.9-2.6-9.3-1.2-16.3
		c1.8-8.5,4.9-14.6,9.3-18.4c4.4-3.8,10.5-5.7,18.4-5.7c7.3,0,12.5,1.9,15.5,5.7c3,3.8,3.7,9.9,1.8,18.4c-1.6,7.3-4.3,13-8.2,16.9
		c-3.9,3.9-9.2,6.1-15.9,6.7c-0.3,1.9-0.2,3.2,0.4,3.9c0.6,0.7,1.9,1,4,1c0.8,0,1.7-0.1,2.7-0.2c1-0.1,1.8-0.3,2.7-0.6l-1.4,6.8
		c-0.9,0.2-2.1,0.5-3.4,0.6C121.1,75.6,119.7,75.7,118.3,75.7z M116,55.7c4.4,0,7.8-1.3,10.4-3.8c2.5-2.5,4.4-6.4,5.5-11.6
		c0.9-4,1.2-7.1,0.9-9.4c-0.3-2.3-1.2-3.9-2.8-4.9c-1.6-1-4.1-1.5-7.3-1.5c-4.4,0-7.8,1.2-10.4,3.6c-2.6,2.4-4.5,6.5-5.7,12.3
		c-1.1,5.4-1,9.3,0.3,11.8C108.2,54.5,111.2,55.7,116,55.7z"/>
	<path d="M143.7,63.3l9.8-46.4h22.2c4.9,0,8.4,1.4,10.5,4.2c2.1,2.8,2.7,6.6,1.6,11.3c-0.6,3.1-2,5.8-4,8.1c-2,2.3-4.7,3.9-8,4.8
		c0.6,0.6,1.1,1.3,1.4,2c0.3,0.7,0.6,1.7,0.8,2.9l2.9,13H171l-2.9-12.5c-0.2-1.1-0.6-1.8-1.1-2.2c-0.5-0.4-1.4-0.6-2.7-0.6h-7.6
		l-3.2,15.3H143.7z M158.4,39.9h10c2.5,0,4.7-0.6,6.3-1.7c1.7-1.1,2.8-3,3.3-5.7c0.6-2.6,0.5-4.5-0.3-5.7c-0.8-1.2-2.7-1.8-5.6-1.8
		h-10.6L158.4,39.9z"/>
	<path d="M209.4,64c-4.8,0-8.8-0.9-12-2.8c-3.2-1.9-5.4-4.6-6.7-8.1c-1.3-3.5-1.4-7.7-0.3-12.5c1.6-7.7,4.8-13.7,9.5-17.9
		c4.7-4.3,11.3-6.4,19.7-6.4c2.8,0,5.2,0.2,7.4,0.6c2.1,0.4,4.1,1,5.9,1.7l-1.8,8.5c-3.7-1.7-7.9-2.5-12.6-2.5
		c-5.3,0-9.3,1.3-12.2,4c-2.9,2.6-4.9,6.7-6,12.1c-1.1,5.1-0.8,8.9,0.8,11.4c1.6,2.5,5.3,3.8,10.9,3.8c2.3,0,4.5-0.2,6.8-0.6
		c2.3-0.4,4.5-1,6.7-1.8l-1.8,8.6c-2.1,0.6-4.3,1.1-6.7,1.5C214.8,63.8,212.2,64,209.4,64z"/>
	<path class="st0" d="M228.9,63.3l1.5-7.3h7.9l-1.5,7.3H228.9z"/>
	<path d="M265.6,64c-7.4,0-12.8-2-16.1-6.1c-3.3-4.1-4.2-9.7-2.7-17c1.6-7.7,5-13.7,10-18.1c5-4.4,11.6-6.6,19.6-6.6
		c2.8,0,5.3,0.2,7.5,0.5c2.2,0.3,4.2,0.8,6.1,1.5l-1.8,8.4c-1.9-0.7-3.9-1.2-6-1.5c-2.2-0.3-4.4-0.5-6.8-0.5
		c-5.2,0-9.4,1.4-12.4,4.1c-3,2.7-5.1,6.8-6.3,12.3c-0.7,3.3-0.9,6.1-0.5,8.3c0.4,2.2,1.5,3.9,3.3,5c1.8,1.1,4.5,1.7,8.1,1.7
		c1.6,0,3.2-0.1,4.8-0.4c1.6-0.3,3-0.6,4.4-1l2.3-10.8h-10.8l1.3-6.2h19L283.7,60c-1.8,1-4.2,1.9-7.2,2.7
		C273.5,63.6,269.9,64,265.6,64z"/>
	<path d="M299.1,64c-6.3,0-8.8-3.2-7.4-9.6l8.4-39.6h9.7l-8.3,38.8c-0.2,1.2-0.2,2,0.1,2.5c0.3,0.5,1,0.7,2.1,0.7
		c1.2,0,2.4-0.2,3.5-0.5l-1.4,6.7C303.7,63.6,301.5,64,299.1,64z"/>
	<path d="M328.1,64c-6.1,0-10.4-1.5-12.8-4.6c-2.4-3.1-3.1-7.5-1.9-13.1c1.2-5.7,3.6-10,7.1-13.1c3.5-3.1,8.6-4.6,15.2-4.6
		c6.2,0,10.5,1.5,13,4.6c2.4,3.1,3.1,7.5,1.9,13.1c-1.2,5.7-3.5,10-7,13.1C340,62.4,334.9,64,328.1,64z M329.9,55.7
		c3.1,0,5.5-0.7,7.1-2.1c1.6-1.4,2.8-3.9,3.6-7.4c0.7-3.5,0.6-6-0.3-7.4c-0.9-1.4-3-2.1-6.4-2.1c-3.1,0-5.4,0.7-7.1,2.1
		c-1.7,1.4-2.8,3.9-3.6,7.4c-0.8,3.5-0.7,6,0.2,7.4C324.4,55,326.5,55.7,329.9,55.7z"/>
	<path d="M373.5,64c-2.4,0-4.4-0.3-6.1-1c-1.7-0.7-3.1-1.6-4.2-2.8l-1.2,3.2h-8.4l10.3-48.5h9.7L370.2,31c3.2-1.7,6.7-2.6,10.6-2.6
		c3,0,5.5,0.6,7.6,1.9c2.1,1.2,3.6,3.2,4.5,5.7c0.9,2.6,0.9,5.9,0.1,9.9c-1.2,6.1-3.5,10.7-6.8,13.6C383,62.5,378.7,64,373.5,64z
		 M372.3,56.9c3.1,0,5.5-0.9,7.2-2.7c1.7-1.8,2.9-4.6,3.7-8.2c0.8-3.8,0.8-6.5-0.1-8c-0.9-1.6-3-2.3-6.3-2.3c-3.2,0-5.9,0.8-8.1,2.5
		l-3.3,15.7c0.7,1,1.7,1.8,2.9,2.3C369.5,56.6,370.8,56.9,372.3,56.9z"/>
	<path d="M410.2,64c-2.9,0-5.5-0.5-7.6-1.6c-2.1-1.1-3.6-2.8-4.5-5.1c-0.9-2.4-0.9-5.5-0.1-9.4c0.9-4.1,2.3-7.6,4.3-10.4
		c2-2.9,4.4-5.1,7.3-6.7c2.8-1.6,5.9-2.3,9.1-2.3c1.9,0,3.6,0.2,5,0.6c1.4,0.4,2.7,1.2,3.9,2.3l0.4-2.2h9.7l-7.2,34.1h-8.4l0.1-3.2
		c-1.8,1.3-3.6,2.3-5.5,2.9C414.8,63.7,412.6,64,410.2,64z M414.4,56.9c3,0,5.8-1,8.4-3.1l3.2-15.2c-1.5-2-3.6-3-6.3-3
		c-6.1,0-10,4.1-11.8,12.3c-0.8,3.5-0.6,5.9,0.4,7.1C409.3,56.2,411.3,56.9,414.4,56.9z"/>
	<path d="M448,64c-6.3,0-8.8-3.2-7.4-9.6l8.4-39.6h9.7l-8.3,38.8c-0.2,1.2-0.2,2,0.1,2.5c0.3,0.5,1,0.7,2.1,0.7
		c1.2,0,2.4-0.2,3.5-0.5l-1.4,6.7C452.6,63.6,450.4,64,448,64z"/>
</g>
<g>
	<path class="st1" d="M25,14.9c0-1,0.8-1.9,1.9-1.9h11.2c1,0,1.9,0.8,1.9,1.9s-0.8,1.9-1.9,1.9h-9.4v9.4c0,1-0.8,1.9-1.9,1.9
		S25,27.2,25,26.1V14.9z M70,14.9c0-1,0.8-1.9,1.9-1.9h11.2c1,0,1.9,0.8,1.9,1.9v11.2c0,1-0.8,1.9-1.9,1.9s-1.9-0.8-1.9-1.9v-9.4
		h-9.4C70.8,16.8,70,15.9,70,14.9z M26.9,58c1,0,1.9,0.8,1.9,1.9v9.4h9.4c1,0,1.9,0.8,1.9,1.9S39.2,73,38.1,73H26.9
		c-1,0-1.9-0.8-1.9-1.9V59.9C25,58.8,25.8,58,26.9,58z M83.1,58c1,0,1.9,0.8,1.9,1.9v11.2c0,1-0.8,1.9-1.9,1.9H71.9
		c-1,0-1.9-0.8-1.9-1.9s0.8-1.9,1.9-1.9h9.4v-9.4C81.2,58.8,82.1,58,83.1,58z M40,28h3.8v3.8H40V28z"/>
	<path class="st1" d="M51.2,20.5H32.5v18.8h18.8V20.5z M36.2,24.2h11.2v11.2H36.2V24.2z M43.8,54.2H40V58h3.8V54.2z"/>
	<path class="st1" d="M51.2,46.8H32.5v18.8h18.8V46.8z M36.2,50.5h11.2v11.2H36.2V50.5z M66.2,28H70v3.8h-3.8V28z"/>
	<path class="st1" d="M58.8,20.5h18.8v18.8H58.8V20.5z M62.5,24.2v11.2h11.2V24.2H62.5z M55,43v7.5h3.8v3.8H55V58h7.5v-7.5h3.8V58
		H70v-3.8h7.5v-3.8H66.2V43H55z M62.5,50.5h-3.8v-3.8h3.8V50.5z M77.5,58h-3.8v3.8h-7.5v3.8h11.2V58z M62.5,65.5v-3.8H55v3.8H62.5z"
		/>
	<path class="st1" d="M70,46.8h7.5V43H70V46.8z"/>
</g>
</svg>
